<svg xmlns="http://www.w3.org/2000/svg" width="399" height="399" viewBox="0 0 399 399">
  <g id="react_native" transform="translate(-1808 -4250)">
    <rect id="Rectangle_9126" data-name="Rectangle 9126" width="399" height="399" transform="translate(1808 4250)" fill="none"/>
    <g id="React_Logo" data-name="React Logo" transform="translate(1909.5 4361.252)">
      <circle id="Ellipse_1364" data-name="Ellipse 1364" cx="19.61" cy="19.61" r="19.61" transform="translate(78.899 68.242)" fill="#61dafb"/>
      <path id="Union_104" data-name="Union 104" d="M119.594,180.445c-3.2-2.586-6.391-5.445-9.594-8.539-3.187,3.094-6.391,5.953-9.578,8.539C82.266,195.211,66.156,199.789,55.016,193.4c-11.156-6.445-15.281-22.734-11.547-45.8q.984-6.105,2.625-12.594c-4.281-1.211-8.375-2.555-12.219-4.031C12.047,122.672,0,110.961,0,98.125,0,85.234,12.047,73.586,33.875,65.219q5.766-2.2,12.219-4.031C45,56.891,44.125,52.7,43.469,48.656c-3.734-23.133.391-39.414,11.547-45.8C66.156-3.594,82.266.984,100.422,15.742c3.188,2.594,6.391,5.453,9.578,8.555q4.781-4.652,9.594-8.555C137.734.984,153.859-3.594,165,2.852c11.125,6.445,15.25,22.672,11.516,45.8-.656,4.039-1.516,8.234-2.594,12.531,4.281,1.219,8.375,2.563,12.219,4.031C207.969,73.586,220,85.234,220,98.125c0,12.836-12.031,24.547-33.859,32.852-3.844,1.477-7.937,2.82-12.234,4.031,1.094,4.32,1.953,8.531,2.609,12.594,3.734,23.063-.391,39.352-11.516,45.8a21.941,21.941,0,0,1-11.062,2.813C144.172,196.211,132.391,190.867,119.594,180.445Zm-66.672-31.32c-3,18.6-.516,31.727,6.844,35.969,7.344,4.234,19.953-.117,34.609-12.055,2.984-2.422,5.969-5.094,8.969-7.977A232.211,232.211,0,0,1,84.7,141.93a229.07,229.07,0,0,1-29.344-4.555C54.344,141.4,53.531,145.328,52.922,149.125Zm72.7,23.914c14.656,11.875,27.266,16.289,34.625,12.055,7.344-4.242,9.828-17.367,6.828-36.023-.609-3.773-1.406-7.68-2.437-11.711a226.13,226.13,0,0,1-29.359,4.57,225.332,225.332,0,0,1-18.594,23.125C119.672,167.945,122.656,170.617,125.625,173.039ZM110.031,158.2c4.328-4.719,8.625-9.875,12.813-15.414-4.219.2-8.5.3-12.812.3-4.328,0-8.625-.1-12.844-.3C101.375,148.313,105.672,153.477,110.031,158.2Zm0-24.672c6.8,0,13.484-.25,19.984-.734q5.531-8.109,10.656-16.969c3.391-5.891,6.531-11.82,9.359-17.711-2.828-5.883-5.969-11.8-9.359-17.687-3.406-5.883-6.953-11.555-10.641-16.961-6.516-.484-13.2-.727-20-.727-6.812,0-13.516.25-20.047.734-3.687,5.4-7.25,11.07-10.656,16.953-3.406,5.9-6.516,11.813-9.359,17.7,2.844,5.9,5.953,11.82,9.359,17.7S86.313,127.375,90,132.789C96.516,133.273,103.219,133.523,110.031,133.523Zm38.891-12.945c-2.172,3.75-4.391,7.414-6.687,10.992,6.922-.859,13.531-2.008,19.813-3.406-1.937-6.133-4.25-12.437-6.937-18.844C153.141,113.078,151.094,116.828,148.922,120.578ZM77.766,131.57c-2.312-3.578-4.531-7.25-6.7-10.992-2.156-3.742-4.219-7.492-6.156-11.242-2.687,6.4-5.016,12.7-6.937,18.828C64.234,129.563,70.859,130.7,77.766,131.57Zm93.563-5.766c3.984-1.141,7.8-2.391,11.359-3.766,17.641-6.719,27.766-15.43,27.766-23.914s-10.125-17.242-27.766-23.977c-3.562-1.359-7.375-2.609-11.359-3.734A230.852,230.852,0,0,1,160.609,98.1,229.53,229.53,0,0,1,171.328,125.8ZM37.313,74.148C19.672,80.883,9.547,89.648,9.547,98.125s10.125,17.2,27.766,23.914Q42.68,124.1,48.688,125.8a227.844,227.844,0,0,1,10.719-27.7,227.35,227.35,0,0,1-10.719-27.7Q42.688,72.1,37.313,74.148ZM64.906,86.891c1.938-3.766,4-7.523,6.156-11.266s4.375-7.383,6.656-10.937q-10.336,1.289-19.75,3.391C59.891,74.2,62.219,80.492,64.906,86.891Zm84.016-11.266c2.172,3.734,4.219,7.5,6.188,11.258,2.688-6.391,5-12.7,6.938-18.8-6.266-1.406-12.891-2.547-19.781-3.406C144.547,68.234,146.781,71.883,148.922,75.625Zm15.734-16.789c1.016-4.016,1.813-7.93,2.422-11.711,3-18.6.516-31.773-6.828-36.016-7.359-4.242-19.969.164-34.625,12.094q-4.453,3.621-8.953,7.969A225.974,225.974,0,0,1,135.281,54.3,229.228,229.228,0,0,1,164.656,58.836ZM59.766,11.109c-7.359,4.242-9.844,17.359-6.844,36.016.609,3.781,1.422,7.7,2.438,11.711a228.5,228.5,0,0,1,29.328-4.523,225.967,225.967,0,0,1,18.656-23.172q-4.5-4.348-8.969-7.992c-11-8.914-20.844-13.617-28.187-13.617A12.626,12.626,0,0,0,59.766,11.109ZM97.156,53.461q6.352-.293,12.875-.289c4.313,0,8.609.094,12.828.289-4.187-5.547-8.5-10.719-12.828-15.437C105.672,42.742,101.359,47.914,97.156,53.461Z" transform="translate(-11.5 -10.256)" fill="#61dafb"/>
    </g>
  </g>
</svg>
